<svg id="root" viewBox="0 0 24 24" fill="none" xmlns="http://www.w3.org/2000/svg">
<path d="M14.8644 14.8649C15.4354 14.2942 16.3608 14.294 16.9316 14.8649L20.8893 18.8236L22.1451 17.5688C22.46 17.2539 22.9985 17.4769 22.9985 17.9223V22.5C22.9985 22.7762 22.7747 23 22.4986 23H17.9209C17.4755 22.9999 17.2525 22.4615 17.5674 22.1466L18.8221 20.8908L14.8644 16.9321C14.2935 16.3612 14.2935 15.4359 14.8644 14.8649Z" fill="currentColor"/>
<path d="M7.06936 14.863C7.64029 14.292 8.56563 14.292 9.13656 14.863C9.70713 15.4339 9.70737 16.3593 9.13656 16.9302L5.17688 20.8879L6.43262 22.1446C6.7474 22.4596 6.52449 22.998 6.07914 22.998H1.50142C1.22544 22.998 1.00168 22.774 1.00146 22.4981V17.9194C1.00165 17.4742 1.53999 17.2512 1.8549 17.5659L3.10968 18.8207L7.06936 14.863Z" fill="currentColor"/>
<path d="M22.4976 1.00195C22.7736 1.00195 22.9973 1.22598 22.9976 1.50191V6.0806C22.9974 6.52581 22.459 6.74882 22.1441 6.43409L20.8884 5.17834L16.9297 9.13705C16.3587 9.708 15.4334 9.708 14.8625 9.13705C14.2919 8.56607 14.2917 7.64068 14.8625 7.06985L18.8212 3.11114L17.5664 1.85539C17.2516 1.54042 17.4745 1.00195 17.9199 1.00195H22.4976Z" fill="currentColor"/>
<path d="M6.08011 1C6.52545 1.00007 6.74847 1.5385 6.4336 1.85344L5.17785 3.10821L9.13656 7.0679C9.70749 7.63885 9.70749 8.56414 9.13656 9.1351C8.56561 9.70584 7.64022 9.70598 7.06936 9.1351L3.11065 5.17541L1.85588 6.43116C1.54093 6.74612 1.00244 6.52309 1.00244 6.07767V1.49996C1.00244 1.22384 1.22628 1 1.5024 1H6.08011Z" fill="currentColor"/>
</svg>
