<svg id="root" viewBox="0 0 36 36" fill="none" xmlns="http://www.w3.org/2000/svg">
<path fill-rule="evenodd" clip-rule="evenodd" d="M26.9825 10.6751C26.9285 9.74085 26.2603 9.07157 25.3275 9.0175C22.1591 8.82842 18.6281 10.1741 15.8744 12.9322L15.1401 13.6677C14.8753 13.9327 14.6238 14.2046 14.3857 14.4835H12.0703C11.5787 14.5024 11.144 14.7864 10.898 15.2032L9.53686 17.9301C9.50051 18.028 9.47509 18.1296 9.46106 18.2331C9.46321 18.4085 9.53386 18.5761 9.6579 18.7C9.78193 18.8239 9.94947 18.8942 10.1246 18.8959H11.8436C11.6205 19.6479 11.7693 20.3881 12.2466 20.8654L15.1529 23.7764C15.6299 24.2544 16.3685 24.4034 17.1194 24.18V25.9035C17.1215 26.0786 17.1919 26.246 17.3155 26.3698C17.4392 26.4937 17.6063 26.5642 17.7811 26.5663C17.8845 26.5523 17.9859 26.5268 18.0836 26.4904L20.8062 25.1271C21.2224 24.8808 21.5059 24.4467 21.5248 23.9529V21.6343C21.8025 21.3955 22.074 21.1437 22.3393 20.8787L23.0737 20.1432C25.8277 17.3851 27.1713 13.8486 26.9825 10.6751ZM21.9248 16.8433C22.3794 16.7527 22.797 16.5292 23.1248 16.2009C23.5643 15.7607 23.8112 15.1636 23.8112 14.5411C23.8112 13.9186 23.5643 13.3216 23.1248 12.8813C22.797 12.5531 22.3794 12.3295 21.9248 12.2389C21.4702 12.1483 20.999 12.1948 20.5707 12.3725C20.1425 12.5501 19.7765 12.851 19.5189 13.237C19.2614 13.623 19.124 14.0769 19.124 14.5411C19.124 15.0054 19.2614 15.4592 19.5189 15.8452C19.7765 16.2312 20.1425 16.5321 20.5707 16.7098C20.999 16.8874 21.4702 16.9339 21.9248 16.8433Z" fill="white"/>
<path d="M13.1269 26.0653C13.3339 25.858 13.4982 25.6118 13.6103 25.3408C13.7224 25.0698 13.7801 24.7794 13.7801 24.4861C13.7801 24.1928 13.7224 23.9024 13.6104 23.6314C13.4983 23.3604 13.3341 23.1142 13.127 22.9068C12.92 22.6994 12.6742 22.5348 12.4036 22.4226C12.1331 22.3103 11.8431 22.2525 11.5503 22.2525C11.2575 22.2525 10.9675 22.3102 10.6969 22.4225C10.4264 22.5347 10.1805 22.6992 9.97345 22.9066C9.35314 23.5275 9.10787 24.4904 9.03101 25.3624C8.98697 25.8557 8.98985 26.3521 9.03959 26.8449C9.05282 26.9685 9.17152 26.9964 9.19189 27H9.19797C9.24767 27 9.96023 27.0161 10.1797 26.3196C10.2192 26.1897 10.2771 26.0662 10.3517 25.9529C10.3827 25.9082 10.4277 25.8753 10.4797 25.8595C10.5316 25.8437 10.5874 25.8459 10.6379 25.8658C10.6884 25.8857 10.7308 25.9221 10.7581 25.9691C10.7853 26.0161 10.796 26.071 10.7883 26.1248C10.7526 26.3893 10.8074 26.6582 10.9438 26.8875C10.9587 26.9131 10.9809 26.9335 11.0075 26.9463C11.0342 26.9591 11.064 26.9635 11.0932 26.9591C11.8398 26.8446 12.6042 26.5889 13.1269 26.0653Z" fill="white"/>
<path d="M18.4613 1.816C18.563 0.993839 19.3119 0.409796 20.1341 0.511503C24.3668 1.03512 28.262 3.09654 31.0902 6.30584C33.918 9.51487 35.485 13.6513 35.4999 17.9387C35.5147 22.2261 33.9764 26.3734 31.1709 29.6022C28.3651 32.8312 24.4843 34.92 20.2553 35.4734C19.4339 35.5809 18.6809 35.0021 18.5734 34.1807C18.4659 33.3592 19.0447 32.6062 19.8661 32.4987C23.3646 32.0409 26.5794 30.3125 28.9064 27.6345C31.2336 24.9562 32.5123 21.5124 32.4999 17.9491C32.4876 14.3857 31.185 10.9511 28.8394 8.28928C26.494 5.62774 23.2673 3.92197 19.7658 3.48881C18.9436 3.3871 18.3596 2.63816 18.4613 1.816Z" fill="white"/>
<path d="M17.4266 1.81964C17.5341 2.64107 16.9553 3.3941 16.1339 3.50158C12.6354 3.95937 9.42059 5.68781 7.09364 8.36582C4.76644 11.0441 3.48774 14.4879 3.50009 18.0512C3.51243 21.6146 4.81496 25.0492 7.16062 27.711C9.50603 30.3726 12.7327 32.0783 16.2342 32.5115C17.0564 32.6132 17.6404 33.3622 17.5387 34.1843C17.437 35.0065 16.6881 35.5905 15.8659 35.4888C11.6332 34.9652 7.73796 32.9038 4.90984 29.6945C2.08198 26.4854 0.514961 22.3491 0.500107 18.0616C0.485252 13.7742 2.02357 9.62692 4.82909 6.39813C7.63485 3.16906 11.5157 1.08031 15.7447 0.526941C16.5661 0.419455 17.3191 0.998217 17.4266 1.81964Z" fill="white"/>
</svg>
