<svg id="root" viewBox="0 0 36 36" fill="none" xmlns="http://www.w3.org/2000/svg">
<path d="M18.4524 1.8175C18.5533 0.995237 19.3016 0.410439 20.1239 0.511316C23.0507 0.870392 25.8394 1.96567 28.2311 3.69503C30.6228 5.42437 32.54 7.73163 33.8052 10.4023C34.1599 11.151 33.8405 12.0454 33.0918 12.4001C32.3432 12.7547 31.4487 12.4354 31.094 11.6867C30.0446 9.47156 28.455 7.559 26.4733 6.1261C24.4916 4.69322 22.1819 3.78629 19.7586 3.48899C18.9363 3.38811 18.3515 2.63976 18.4524 1.8175Z" fill="white"/>
<path d="M17.4179 1.82169C17.5254 2.64311 16.9467 3.39618 16.1253 3.50372C13.7044 3.82065 11.4021 4.74628 9.43195 6.19519C7.46181 7.64412 5.88765 9.56951 4.85608 11.7931C4.50745 12.5446 3.61561 12.8712 2.86412 12.5225C2.11262 12.1739 1.78604 11.2821 2.13468 10.5306C3.37836 7.84977 5.27686 5.52707 7.65454 3.77841C10.0322 2.02973 12.812 0.911889 15.7359 0.529101C16.5573 0.421563 17.3104 1.00028 17.4179 1.82169Z" fill="white"/>
<path d="M33.4184 13.3955C34.2316 13.2375 35.0189 13.7687 35.1768 14.5819C35.7405 17.4841 35.5647 20.4821 34.6657 23.298C33.7666 26.1139 32.1733 28.6568 30.033 30.6905C29.4324 31.2612 28.483 31.2369 27.9123 30.6364C27.3417 30.0358 27.3659 29.0864 27.9665 28.5157C29.7404 26.8301 31.0619 24.7216 31.8078 22.3855C32.5537 20.0494 32.6996 17.5619 32.2319 15.1539C32.0739 14.3407 32.6051 13.5534 33.4184 13.3955Z" fill="white"/>
<path d="M2.54557 13.5206C3.36004 13.672 3.89757 14.455 3.74616 15.2695C3.29786 17.6811 3.46377 20.1674 4.2284 22.4974C4.99302 24.8273 6.33143 26.925 8.11885 28.5962C8.72399 29.1619 8.75591 30.1112 8.19013 30.7163C7.62436 31.3214 6.67515 31.3533 6.07001 30.7876C3.91339 28.7713 2.29965 26.2413 1.37797 23.4328C0.456297 20.6243 0.256387 17.6278 0.796691 14.7212C0.948093 13.9067 1.73109 13.3692 2.54557 13.5206Z" fill="white"/>
<path d="M27.075 31.2524C27.4782 31.9761 27.2183 32.8896 26.4946 33.2928C23.917 34.7287 21.0194 35.4881 18.0707 35.5C15.122 35.512 12.2184 34.7761 9.62926 33.3611C8.90231 32.9638 8.63508 32.0524 9.03237 31.3255C9.42967 30.5985 10.341 30.3313 11.068 30.7286C13.2127 31.9007 15.6172 32.5099 18.0585 32.5C20.4999 32.4901 22.8994 31.8615 25.0346 30.672C25.7583 30.2688 26.6718 30.5287 27.075 31.2524Z" fill="white"/>
<path d="M17.4156 8.94808C17.4541 8.947 17.5016 8.94127 17.539 8.95039L17.5577 8.95668C17.9188 9.07125 18.9902 10.4777 19.2434 10.8146C20.6716 12.7148 21.2658 14.0618 21.0288 16.4509C21.0057 16.6842 20.9542 16.9222 20.949 17.1554C21.5517 16.86 22.0535 15.5356 22.1981 14.9415L22.2679 14.5894C22.2874 14.4775 22.2932 14.3434 22.361 14.2472C22.4669 14.097 22.706 14.0649 22.8525 14.1735C22.9444 14.2415 23.0167 14.3575 23.0801 14.4519L23.3525 14.8735C24.0641 16.0185 24.5188 17.2343 24.7232 18.5699L24.7967 19.27C24.8116 19.4081 24.8081 19.5523 24.8089 19.6912C24.8335 23.4983 22.3907 26.5379 18.5558 27.0198C18.2436 27.0605 17.9299 27.0537 17.6154 27.0495C15.9512 27.0275 14.2514 26.1927 13.1106 25.0141C10.8278 22.6559 10.4966 18.7257 12.5721 16.1307C12.6954 15.9765 12.7944 15.8124 13.0164 15.8261C13.2951 15.8433 13.3517 16.078 13.356 16.2976L13.3657 16.6537C13.4067 17.3828 13.6051 18.1412 14.1081 18.6945C14.3659 18.2409 14.6614 17.8227 14.9917 17.4187L15.7386 16.5183C16.7947 15.1416 17.3202 13.5402 17.3176 11.8163C17.3173 11.6613 17.3225 11.5013 17.3011 11.3475L17.0815 9.81285C17.0153 9.42684 16.9371 9.05036 17.4156 8.94808Z" fill="white"/>
</svg>
