<svg id="root" viewBox="0 0 40 40" fill="none" xmlns="http://www.w3.org/2000/svg">
  <path d="M27.6177 16.4156L21.6999 17.7955C20.9608 17.9678 20.2702 17.3649 20.3414 16.6092L20.9408 10.2438C20.9626 10.0125 20.6594 9.90712 20.533 10.1021L12.2931 22.8177C12.1863 22.9825 12.3301 23.1947 12.5228 23.1565L18.2825 22.0149C19.0063 21.8714 19.6664 22.4605 19.6059 23.1959L19.0596 29.8341C19.0406 30.0655 19.3444 30.1674 19.4687 29.9714L27.8558 16.7511C27.9624 16.5831 27.8115 16.3704 27.6177 16.4156Z" fill="currentColor"/>
  <path d="M19.4223 2.01154C19.5383 2.92468 18.892 3.75894 17.9789 3.87492C15.5 4.18976 13.1276 5.07945 11.0495 6.47404C8.97132 7.86865 7.2443 9.73003 6.00551 11.9114C4.7667 14.0927 4.05025 16.534 3.91321 19.042C3.77616 21.55 4.22232 24.0555 5.21613 26.36C5.58062 27.2053 5.1909 28.186 4.34567 28.5504C3.50044 28.9149 2.51976 28.5252 2.15527 27.68C0.957268 24.9019 0.419698 21.8824 0.58484 18.8601C0.749983 15.8379 1.61334 12.8954 3.10698 10.2653C4.60063 7.63516 6.68375 5.38944 9.19201 3.70619C11.7003 2.02292 14.5648 0.948425 17.5589 0.568149C18.472 0.452173 19.3063 1.0984 19.4223 2.01154Z" fill="currentColor"/>
  <path d="M20.6963 2.01579C20.8184 1.10344 21.6569 0.462781 22.5693 0.584835C25.5608 0.985044 28.4181 2.07859 30.9152 3.77852C33.4123 5.47843 35.4805 7.73796 36.9567 10.3779C38.4329 13.0179 39.2768 15.9661 39.422 18.9894C39.5672 22.0127 39.0097 25.0286 37.7933 27.7986C37.4232 28.6414 36.44 29.0246 35.5972 28.6546C34.7544 28.2845 34.3712 27.3012 34.7413 26.4584C35.7503 24.1605 36.213 21.6581 36.0925 19.1493C35.972 16.6404 35.2717 14.1944 34.0474 12.0048C32.823 9.81525 31.1083 7.94239 29.0394 6.53396C26.9705 5.12555 24.6041 4.22008 22.1273 3.88873C21.2149 3.76668 20.5743 2.92813 20.6963 2.01579Z" fill="currentColor"/>
  <path d="M35.2652 29.2278C36.0053 29.7751 36.1616 30.8187 35.6143 31.5588C33.8165 33.99 31.4795 35.9685 28.7877 37.3372C26.0958 38.7058 23.1233 39.4271 20.1053 39.4435C17.0873 39.4599 14.1072 38.771 11.4007 37.4316C8.69426 36.0922 6.33601 34.1392 4.51212 31.7277C3.95687 30.9935 4.1019 29.9483 4.83605 29.393C5.5702 28.8378 6.61546 28.9828 7.17071 29.7169C8.68296 31.7165 10.6374 33.3347 12.8792 34.4441C15.1209 35.5534 17.5886 36.1238 20.0872 36.1102C22.5858 36.0966 25.0472 35.4995 27.2769 34.3658C29.5065 33.2322 31.4435 31.5928 32.9341 29.577C33.4814 28.8368 34.5251 28.6805 35.2652 29.2278Z" fill="currentColor"/>
  <mask id="mask0_151110_4407" style="mask-type:alpha" maskUnits="userSpaceOnUse" x="0" y="0" width="40" height="40">
    <g clip-path="url(#paint0_angular_151110_4407_clip_path)" data-figma-skip-parse="true"><g transform="matrix(1.74845e-09 -0.02 0.02 1.74846e-09 20 20)"><foreignObject x="-1050" y="-1050" width="2100" height="2100"><div xmlns="http://www.w3.org/1999/xhtml" style="background:conic-gradient(from 90deg,rgba(0, 0, 0, 0) 0deg,rgba(0, 0, 0, 1) 118.343deg,rgba(0, 0, 0, 0) 120.682deg,rgba(0, 0, 0, 0) 360deg);height:100%;width:100%;opacity:1"></div></foreignObject></g></g><path d="M5.56315e-06 20C6.5288e-06 8.9543 8.95431 1.1006e-06 20 2.06624e-06C31.0457 3.03189e-06 40 8.95431 40 20C40 31.0457 31.0457 40 20 40C8.95431 40 4.59751e-06 31.0457 5.56315e-06 20Z" data-figma-gradient-fill="{&#34;type&#34;:&#34;GRADIENT_ANGULAR&#34;,&#34;stops&#34;:[{&#34;color&#34;:{&#34;r&#34;:0.0,&#34;g&#34;:0.0,&#34;b&#34;:0.0,&#34;a&#34;:1.0},&#34;position&#34;:0.32873156666755676},{&#34;color&#34;:{&#34;r&#34;:0.0,&#34;g&#34;:0.0,&#34;b&#34;:0.0,&#34;a&#34;:0.0},&#34;position&#34;:0.33522877097129822},{&#34;color&#34;:{&#34;r&#34;:0.0,&#34;g&#34;:0.0,&#34;b&#34;:0.0,&#34;a&#34;:0.0},&#34;position&#34;:1.0}],&#34;stopsVar&#34;:[{&#34;color&#34;:{&#34;r&#34;:0.0,&#34;g&#34;:0.0,&#34;b&#34;:0.0,&#34;a&#34;:1.0},&#34;position&#34;:0.32873156666755676},{&#34;color&#34;:{&#34;r&#34;:0.0,&#34;g&#34;:0.0,&#34;b&#34;:0.0,&#34;a&#34;:0.0},&#34;position&#34;:0.33522877097129822},{&#34;color&#34;:{&#34;r&#34;:0.0,&#34;g&#34;:0.0,&#34;b&#34;:0.0,&#34;a&#34;:0.0},&#34;position&#34;:1.0}],&#34;transform&#34;:{&#34;m00&#34;:3.4969098123838194e-06,&#34;m01&#34;:39.999996185302734,&#34;m02&#34;:3.8146972656250000e-06,&#34;m10&#34;:-39.999996185302734,&#34;m11&#34;:3.4969116313732229e-06,&#34;m12&#34;:39.999996185302734},&#34;opacity&#34;:1.0,&#34;blendMode&#34;:&#34;NORMAL&#34;,&#34;visible&#34;:true}"/>
  </mask>
  <g mask="url(#mask0_151110_4407)">
  </g>
  <defs>
    <clipPath id="paint0_angular_151110_4407_clip_path"><path d="M5.56315e-06 20C6.5288e-06 8.9543 8.95431 1.1006e-06 20 2.06624e-06C31.0457 3.03189e-06 40 8.95431 40 20C40 31.0457 31.0457 40 20 40C8.95431 40 4.59751e-06 31.0457 5.56315e-06 20Z"/></clipPath></defs>
</svg>
