<svg id="root" viewBox="0 0 24 24" fill="none" xmlns="http://www.w3.org/2000/svg">
<path d="M8.35979 15.146C8.63567 15.1463 8.85969 15.3701 8.85979 15.646V20.2251C8.85974 20.6704 8.32127 20.8932 8.00627 20.5786L6.75041 19.3228L3.49748 22.5757C2.92646 23.1464 2.00102 23.1465 1.4301 22.5757C0.859067 22.0047 0.859067 21.0784 1.4301 20.5073L4.68205 17.2544L3.42717 15.9995C3.11219 15.6846 3.33523 15.146 3.78069 15.146H8.35979Z" fill="currentColor"/>
<path d="M20.2211 15.1441C20.6666 15.1441 20.8896 15.6826 20.5746 15.9976L19.3188 17.2525L22.5717 20.5054C23.1427 21.0764 23.1427 22.0027 22.5717 22.5738C22.0007 23.1446 21.0753 23.1445 20.5043 22.5738L17.2514 19.3208L15.9965 20.5767C15.6815 20.8917 15.143 20.6686 15.143 20.2232V15.6441C15.1431 15.368 15.3669 15.1441 15.643 15.1441H20.2211Z" fill="currentColor"/>
<path d="M20.5024 1.4302C21.0734 0.859201 21.9987 0.859174 22.5697 1.4302C23.1407 2.00123 23.1407 2.92657 22.5697 3.49758L19.3168 6.74953L20.5727 8.00539C20.8877 8.32038 20.6646 8.85891 20.2192 8.85891H15.641C15.3649 8.85891 15.141 8.63505 15.141 8.35891V3.78078C15.141 3.33535 15.6796 3.11137 15.9946 3.42629L17.2494 4.68215L20.5024 1.4302Z" fill="currentColor"/>
<path d="M1.42815 1.42824C1.99916 0.85723 2.92449 0.857274 3.49553 1.42824L6.74748 4.6802L8.00432 3.42434C8.31925 3.11012 8.85746 3.33292 8.85783 3.77785V8.35696C8.85783 8.63295 8.63378 8.85672 8.35783 8.85696H3.77873C3.33328 8.85696 3.11024 8.31842 3.42522 8.00344L4.6801 6.74758L1.42815 3.49563C0.857248 2.92465 0.857321 1.99927 1.42815 1.42824Z" fill="currentColor"/>
</svg>
