<svg id="root" viewBox="0 0 24 24" fill="none" xmlns="http://www.w3.org/2000/svg">
<path d="M12 18.0508C12.1225 18.0512 13.2001 18.3781 13.2002 20.248V21.8418C13.2002 23.7134 12.1089 23.999 12 23.999C11.8884 23.9981 10.8008 23.6968 10.8008 21.8418V20.248C10.8008 18.3869 11.8987 18.0508 12 18.0508ZM5.30664 16.9619C6.62264 15.6461 7.63637 16.1852 7.70801 16.2568C7.79418 16.3434 8.32624 17.3367 7.00391 18.6592L5.87695 19.7861C4.55409 21.109 3.58066 20.5403 3.50293 20.4629C3.42594 20.3859 2.86611 19.4024 4.17969 18.0889L5.30664 16.9619ZM16.2852 16.25C16.3633 16.1725 17.3464 15.614 18.6592 16.9268L19.7861 18.0537C21.102 19.3697 20.5628 20.3844 20.4912 20.4561C20.403 20.543 19.4101 21.0721 18.0889 19.751L16.9619 18.624C15.6385 17.3006 16.2081 16.327 16.2852 16.25ZM21.8428 10.8066C23.7142 10.8067 24 11.8978 24 12.0068C24 12.1157 23.7003 13.207 21.8428 13.207H20.249C18.3892 13.207 18.0523 12.1106 18.0518 12.0078C18.0518 11.8865 18.3777 10.8066 20.249 10.8066H21.8428ZM3.79102 10.7715C5.66255 10.7715 5.94824 11.8627 5.94824 11.9717C5.94822 12.0806 5.64869 13.1719 3.79102 13.1719H2.19727C0.337605 13.1718 0.000529637 12.0755 0 11.9727C0 11.8513 0.326069 10.7715 2.19727 10.7715H3.79102ZM18.0879 4.20605C19.4108 2.88319 20.3842 3.45188 20.4619 3.5293C20.5389 3.60632 21.0987 4.58974 19.7852 5.90332L18.6582 7.03027C17.3422 8.3461 16.3285 7.80699 16.2568 7.73535C16.1707 7.64874 15.6386 6.65551 16.9609 5.33301L18.0879 4.20605ZM3.51367 3.50684C3.60027 3.42066 4.59437 2.88929 5.91699 4.21191L7.04395 5.33887C8.36674 6.66171 7.79812 7.63516 7.7207 7.71289C7.64368 7.78988 6.66023 8.34964 5.34668 7.03613L4.21973 5.90918C2.90362 4.59307 3.44203 3.57848 3.51367 3.50684ZM12 0C12.1225 0.000440632 13.2001 0.327333 13.2002 2.19727V3.79102C13.2002 5.66264 12.1089 5.94827 12 5.94824C11.8884 5.94736 10.8008 5.64603 10.8008 3.79102V2.19727C10.8008 0.33614 11.8987 0 12 0Z" fill="currentColor"/>
</svg>
