<svg id="root" viewBox="0 0 7 16" fill="none" xmlns="http://www.w3.org/2000/svg">
<path fill-rule="evenodd" clip-rule="evenodd" d="M5.13259 7.66934C5.83506 7.18871 6.74409 7.38735 6.78197 7.39576C6.92974 7.42933 7.02472 7.58146 6.99434 7.73729C6.98631 7.77737 6.79374 8.73014 6.09122 9.21109C5.67282 9.49737 5.18159 9.54269 4.84442 9.53076C4.70624 9.52588 4.59908 9.51175 4.52826 9.50021L3.72624 10.0759C3.57699 10.7084 3.38617 11.3487 3.13971 11.9819L3.42946 11.9042C3.44345 11.9005 3.45708 11.9034 3.47104 11.902C3.63328 11.6112 3.98363 11.0972 4.54339 10.8725C5.32471 10.5592 6.17041 10.9518 6.21043 10.9704C6.34838 11.0358 6.41005 11.2059 6.3493 11.3515C6.33123 11.3935 5.95085 12.2781 5.16985 12.5916C4.92157 12.6913 4.66715 12.7198 4.43382 12.7116C3.93077 12.6938 3.5271 12.5052 3.50282 12.4938C3.4986 12.4917 3.49614 12.4879 3.49207 12.4857L2.85163 12.6574C2.31649 13.8268 1.58313 14.9505 0.576821 15.9232C0.521085 15.9772 0.450367 16.0023 0.380233 15.9998C0.308764 15.9973 0.238534 15.9661 0.186479 15.9065C0.0829447 15.7888 0.0902313 15.6052 0.202473 15.4969C1.15771 14.5735 1.85439 13.5041 2.36333 12.3894L2.0854 12.035C1.78652 11.9874 1.1063 11.8252 0.628038 11.2916C0.0136359 10.6064 0.000319859 9.60032 4.23935e-06 9.55779C-0.000420681 9.47735 0.0311138 9.39983 0.087241 9.34479C0.143012 9.28973 0.217345 9.26719 0.29534 9.26644C0.335772 9.26928 1.29163 9.34491 1.90567 10.0301C2.43441 10.6197 2.51748 11.4432 2.53073 11.6894L2.61561 11.7978C2.85123 11.1992 3.03604 10.5932 3.18026 9.99328L2.71471 9.4073C2.44102 9.36909 1.76529 9.22534 1.32108 8.69597C0.766636 8.0356 0.823769 7.06355 0.826436 7.02252C0.837328 6.86385 0.958932 6.74596 1.11839 6.753C1.15745 6.75546 2.08335 6.81866 2.63748 7.47902C3.08686 8.01395 3.13362 8.7459 3.13412 9.02908L3.33402 9.28082C3.45437 8.65133 3.53311 8.03735 3.58147 7.45439L3.15318 7.15183C3.14552 7.15165 3.14132 7.15183 3.13282 7.15153C2.8587 7.14183 2.16239 7.06762 1.6697 6.58439C1.05692 5.98395 1.02399 5.01081 1.0226 4.96969C1.0183 4.81086 1.13669 4.67798 1.28811 4.67164C1.32799 4.66949 2.25459 4.63817 2.86771 5.239C3.34524 5.70719 3.46941 6.39589 3.50216 6.69902L3.62624 6.78668C3.66012 6.0798 3.65227 5.43872 3.62712 4.89559L3.22105 4.74818L3.21984 4.74814C3.10251 4.74399 2.2363 4.69315 1.68545 4.08853C1.10588 3.45239 1.12531 2.47868 1.12664 2.4376C1.13076 2.27869 1.25606 2.15279 1.40749 2.15567C1.4508 2.15224 2.37416 2.17956 2.95403 2.81608C3.37131 3.27409 3.47643 3.90281 3.5031 4.2366L3.58818 4.26753C3.54156 3.67579 3.48261 3.28013 3.46426 3.1667C3.24639 2.94544 2.81857 2.43428 2.7519 1.77217C2.66346 0.896956 3.24534 0.138628 3.27036 0.10658C3.36649 -0.0164695 3.53827 -0.0358901 3.65657 0.0635867C3.68748 0.0890996 4.40817 0.70258 4.49626 1.57779C4.57137 2.32089 4.16524 2.97545 4.02511 3.1768C4.05321 3.36908 4.10088 3.74001 4.13966 4.24638L4.29854 4.14202C4.29325 3.8182 4.33579 3.15092 4.72555 2.63791C5.24874 1.95011 6.17049 1.8389 6.20945 1.83462C6.3613 1.8152 6.49562 1.93082 6.51346 2.08873C6.51789 2.12963 6.61984 3.0981 6.0966 3.78589C5.64274 4.38253 4.89076 4.54456 4.67327 4.57991L4.17887 4.90467C4.20347 5.46602 4.20953 6.1251 4.17314 6.85042L4.25379 6.81047C4.30257 6.49787 4.45909 5.83509 4.94185 5.39886C5.57821 4.82345 6.50415 4.8948 6.5422 4.89829C6.69301 4.91069 6.80601 5.04862 6.79583 5.20727C6.79317 5.24825 6.72221 6.21911 6.08655 6.79351C5.54773 7.27997 4.80439 7.3035 4.56577 7.2974L4.12779 7.51404C4.08127 8.06904 4.00946 8.65075 3.9008 9.24823L4.26995 8.98322C4.35486 8.68528 4.59205 8.03958 5.13259 7.66934Z" fill="currentColor"/>
</svg>
