<svg id="root" viewBox="0 0 7 16" fill="none" xmlns="http://www.w3.org/2000/svg">
<path fill-rule="evenodd" clip-rule="evenodd" d="M1.86741 7.66934C1.16494 7.18871 0.255914 7.38735 0.218026 7.39576C0.0702596 7.42933 -0.0247159 7.58146 0.00565577 7.73729C0.0136867 7.77737 0.206256 8.73014 0.908783 9.21109C1.32718 9.49737 1.81841 9.54269 2.15558 9.53076C2.29376 9.52588 2.40092 9.51175 2.47174 9.50021L3.27376 10.0759C3.42301 10.7084 3.61383 11.3487 3.86029 11.9819L3.57054 11.9042C3.55655 11.9005 3.54292 11.9034 3.52896 11.902C3.36672 11.6112 3.01638 11.0972 2.45661 10.8725C1.67529 10.5592 0.829595 10.9518 0.78957 10.9704C0.65162 11.0358 0.589948 11.2059 0.650702 11.3515C0.66877 11.3935 1.04915 12.2781 1.83015 12.5916C2.07843 12.6913 2.33285 12.7198 2.56618 12.7116C3.06923 12.6938 3.4729 12.5052 3.49718 12.4938C3.5014 12.4917 3.50386 12.4879 3.50793 12.4857L4.14837 12.6574C4.68352 13.8268 5.41686 14.9505 6.42318 15.9232C6.47892 15.9772 6.54963 16.0023 6.61977 15.9998C6.69124 15.9973 6.76147 15.9661 6.81352 15.9065C6.91706 15.7888 6.90977 15.6052 6.79753 15.4969C5.84229 14.5735 5.14561 13.5041 4.63667 12.3894L4.9146 12.035C5.21348 11.9874 5.8937 11.8252 6.37196 11.2916C6.98637 10.6064 6.99968 9.60032 7 9.55779C7.00042 9.47735 6.96889 9.39983 6.91276 9.34479C6.85699 9.28973 6.78266 9.26719 6.70466 9.26644C6.66423 9.26928 5.70838 9.3449 5.09433 10.0301C4.56559 10.6197 4.48252 11.4432 4.46927 11.6894L4.38439 11.7978C4.14877 11.1992 3.96396 10.5932 3.81974 9.99328L4.28529 9.4073C4.55898 9.36909 5.23471 9.22534 5.67892 8.69597C6.23337 8.0356 6.17623 7.06355 6.17356 7.02252C6.16267 6.86385 6.04107 6.74596 5.88161 6.753C5.84255 6.75546 4.91665 6.81866 4.36252 7.47902C3.91314 8.01395 3.86638 8.7459 3.86588 9.02908L3.66598 9.28082C3.54563 8.65133 3.46689 8.03735 3.41853 7.45439L3.84682 7.15183C3.85448 7.15165 3.85868 7.15183 3.86718 7.15153C4.14131 7.14183 4.83761 7.06762 5.3303 6.58439C5.94308 5.98395 5.97601 5.01081 5.9774 4.96969C5.9817 4.81086 5.86331 4.67798 5.71189 4.67164C5.67201 4.66949 4.74542 4.63817 4.13229 5.239C3.65476 5.70719 3.53059 6.39589 3.49784 6.69902L3.37376 6.78668C3.33988 6.0798 3.34773 5.43872 3.37288 4.89559L3.77895 4.74818L3.78016 4.74814C3.89749 4.74399 4.76369 4.69315 5.31455 4.08853C5.89412 3.45239 5.87469 2.47868 5.87336 2.4376C5.86924 2.27869 5.74394 2.15279 5.59251 2.15567C5.5492 2.15224 4.62584 2.17956 4.04597 2.81608C3.62869 3.27409 3.52357 3.90281 3.4969 4.2366L3.41182 4.26753C3.45844 3.67579 3.51739 3.28013 3.53574 3.1667C3.75361 2.94544 4.18142 2.43429 4.2481 1.77217C4.33654 0.896954 3.75467 0.138629 3.72964 0.10658C3.63351 -0.0164696 3.46173 -0.0358901 3.34343 0.0635868C3.31252 0.0890998 2.59183 0.702579 2.50374 1.57779C2.42863 2.32089 2.83475 2.97545 2.97489 3.1768C2.94679 3.36908 2.89912 3.74001 2.86034 4.24638L2.70146 4.14202C2.70675 3.8182 2.66421 3.15092 2.27445 2.63791C1.75125 1.95011 0.829515 1.8389 0.790547 1.83462C0.6387 1.8152 0.504381 1.93082 0.48654 2.08873C0.482114 2.12963 0.380159 3.0981 0.9034 3.78589C1.35726 4.38253 2.10923 4.54456 2.32673 4.57991L2.82113 4.90467C2.79653 5.46602 2.79047 6.1251 2.82686 6.85042L2.74621 6.81047C2.69743 6.49787 2.54091 5.83509 2.05815 5.39886C1.42179 4.82345 0.495849 4.8948 0.457802 4.89829C0.306986 4.91069 0.193987 5.04862 0.204166 5.20727C0.206831 5.24825 0.277792 6.21911 0.913445 6.79351C1.45227 7.27997 2.19561 7.3035 2.43423 7.2974L2.87221 7.51404C2.91873 8.06904 2.99054 8.65075 3.0992 9.24823L2.73005 8.98322C2.64514 8.68528 2.40795 8.03958 1.86741 7.66934Z" fill="currentColor"/>
</svg>
